<svg xmlns="http://www.w3.org/2000/svg" width="24" height="24" viewBox="0 0 24 24"><defs><style>.a{fill:#7d0;}.b{fill:#6b0;}.c{fill:#e7e7e7;}.d{fill:#d3d3d8;}</style></defs><path class="a" d="M12,0A12,12,0,1,0,24,12,12.041,12.041,0,0,0,12,0Z"/><path class="b" d="M268,12a12.041,12.041,0,0,1-12,12V0A12.041,12.041,0,0,1,268,12Z" transform="translate(-244)"/><path class="c" d="M120.063,111.625v2.813h-5.625v5.625h-2.812v-5.625H106v-2.812h5.625V106h2.813v5.625Z" transform="translate(-101.031 -101.031)"/><path class="d" d="M263.031,111.625v2.813h-5.625v5.625H256V106h1.406v5.625Z" transform="translate(-244 -101.031)"/></svg>