<svg xmlns="http://www.w3.org/2000/svg" width="24" height="24" viewBox="0 0 24 24"><defs><style>.a{fill:#fedb41;}.b{fill:#fc3;}.c{fill:#fea832;}.d{fill:#fe9923;}</style></defs><path class="a" d="M12.047,0A12.042,12.042,0,0,0,0,11.953,12.122,12.122,0,0,0,12.047,24a12,12,0,0,0,0-24Z"/><path class="b" d="M268.953,11.953A12.042,12.042,0,0,1,257,24V0A11.961,11.961,0,0,1,268.953,11.953Z" transform="translate(-244.953)"/><path class="c" d="M69.234,60a9.188,9.188,0,1,0,9.141,9.141A9.239,9.239,0,0,0,69.234,60Z" transform="translate(-57.188 -57.188)"/><path class="d" d="M266.141,69.141A9.239,9.239,0,0,1,257,78.375V60A9.158,9.158,0,0,1,266.141,69.141Z" transform="translate(-244.953 -57.188)"/><path class="a" d="M185.016,125.625h-.7v-2.812h.7a.7.7,0,0,1,.7.7.7.7,0,0,0,1.406,0,2.106,2.106,0,0,0-2.109-2.109h-.7v-.7a.7.7,0,0,0-1.406,0v.7h-.8A2.106,2.106,0,0,0,180,123.516v1.406a2.106,2.106,0,0,0,2.109,2.109h.8v2.906h-.8a.7.7,0,0,1-.7-.7.7.7,0,0,0-1.406,0,2.106,2.106,0,0,0,2.109,2.109h.8v.7a.7.7,0,0,0,1.406,0v-.7h.7a2.106,2.106,0,0,0,2.109-2.109v-1.5A2.106,2.106,0,0,0,185.016,125.625Zm-2.109,0h-.8a.7.7,0,0,1-.7-.7v-1.406a.7.7,0,0,1,.7-.7h.8Zm2.813,3.609a.7.7,0,0,1-.7.7h-.7v-2.906h.7a.7.7,0,0,1,.7.7Z" transform="translate(-171.563 -114.375)"/><path class="b" d="M258.406,125.625h-.7v-2.812h.7a.7.7,0,0,1,.7.7.7.7,0,0,0,1.406,0,2.106,2.106,0,0,0-2.109-2.109h-.7v-.7a.678.678,0,0,0-.7-.7v12.75a.678.678,0,0,0,.7-.7v-.7h.7a2.106,2.106,0,0,0,2.109-2.109v-1.5A2.106,2.106,0,0,0,258.406,125.625Zm.7,3.609a.7.7,0,0,1-.7.7h-.7v-2.906h.7a.7.7,0,0,1,.7.7Z" transform="translate(-244.953 -114.375)"/></svg>